<svg viewBox="77.8889 143.889 148.969 97.9688" xmlns="http://www.w3.org/2000/svg" id="OBJECTS" style="max-height: 500px" width="148.969" height="97.9688"><defs><style>.cls-1{fill:#0d1321;}.cls-2{fill:#1d2d44;}.cls-3{fill:#3e5c76;}.cls-4{fill:#748cab;}.cls-5{fill:#f9f7f0;}</style></defs><path d="M91.3,174.56a81.41,81.41,0,0,0-11.88,17.65,80.49,80.49,0,0,0,11.77,17.52,63.23,63.23,0,0,1,.11-35.17Z" class="cls-1"/><path d="M212.93,209.59a81,81,0,0,0,11.64-17.38,80.92,80.92,0,0,0-11.76-17.5,63.31,63.31,0,0,1,.12,34.88Z" class="cls-1"/><path d="M201.93,164.4A81.56,81.56,0,0,0,187,155.13a51,51,0,0,1,.57,73.89,80,80,0,0,0,14.63-9.23,57.18,57.18,0,0,0-.29-55.39Z" class="cls-1"/><path d="M100.94,192.35a51,51,0,0,1,16.2-37.3,81.25,81.25,0,0,0-14.93,9.24,57.19,57.19,0,0,0-.28,55.63,80.68,80.68,0,0,0,14.63,9.18A50.93,50.93,0,0,1,100.94,192.35Z" class="cls-1"/><path d="M156.65,237.11a45,45,0,1,0-9.07,0c1.47.07,2.93.13,4.41.13S155.11,237.2,156.65,237.11Zm-43.51-44.76a38.9,38.9,0,1,1,38.9,38.9A38.9,38.9,0,0,1,113.14,192.35Z" class="cls-2"/><path d="M152,159.55a32.8,32.8,0,1,0,32.8,32.8A32.8,32.8,0,0,0,152,159.55Zm0,59.51a26.71,26.71,0,1,1,26.7-26.71A26.71,26.71,0,0,1,152,219.06Z" class="cls-3"/><path d="M166,188.49a14.49,14.49,0,1,1-8.34-9.51,8.24,8.24,0,0,1,3.11-5.27,20.59,20.59,0,1,0,10.88,12.37A8.24,8.24,0,0,1,166,188.49Z" class="cls-4"/><circle r="4.26" cy="180.24" cx="165.83" class="cls-5"/></svg>