<svg viewBox="252.88499999999996 143.885 151.989 97.9735" xmlns="http://www.w3.org/2000/svg" id="OBJECTS" style="max-height: 500px" width="151.989" height="97.9735"><defs><style>.cls-1{fill:#fff;}</style></defs><path d="M267.2,174.61a81.57,81.57,0,0,0-11.89,17.65,81.13,81.13,0,0,0,11.78,17.52,63.23,63.23,0,0,1,.11-35.17Z" class="cls-1"/><path d="M388.83,209.63a81.17,81.17,0,0,0,11.64-17.37,81,81,0,0,0-11.76-17.51,63.31,63.31,0,0,1,.12,34.88Z" class="cls-1"/><path d="M377.83,164.45a80.49,80.49,0,0,0-14.91-9.27,51,51,0,0,1,.57,73.89,81.12,81.12,0,0,0,14.63-9.23,57.25,57.25,0,0,0-.29-55.39Z" class="cls-1"/><path d="M276.84,192.4A50.94,50.94,0,0,1,293,155.1a80.18,80.18,0,0,0-14.93,9.24,57.19,57.19,0,0,0-.28,55.63,80.68,80.68,0,0,0,14.63,9.18A51,51,0,0,1,276.84,192.4Z" class="cls-1"/><path d="M332.55,237.16a45,45,0,1,0-9.07,0c1.47.08,2.93.13,4.41.13S331,237.24,332.55,237.16ZM289,192.4a38.9,38.9,0,1,1,38.9,38.89A38.89,38.89,0,0,1,289,192.4Z" class="cls-1"/><path d="M327.94,159.6a32.8,32.8,0,1,0,32.8,32.8A32.8,32.8,0,0,0,327.94,159.6Zm0,59.5a26.71,26.71,0,1,1,26.7-26.7A26.71,26.71,0,0,1,327.94,219.1Z" class="cls-1"/><path d="M341.91,188.53a14.46,14.46,0,1,1-8.34-9.51,8.22,8.22,0,0,1,3.11-5.26,20.57,20.57,0,1,0,10.88,12.36A8.16,8.16,0,0,1,341.91,188.53Z" class="cls-1"/><circle r="4.26" cy="180.28" cx="341.73" class="cls-1"/></svg>